<?xml version="1.0" standalone="no"?>
<!DOCTYPE svg PUBLIC "-//W3C//DTD SVG 20010904//EN"
 "http://www.w3.org/TR/2001/REC-SVG-20010904/DTD/svg10.dtd">
<svg version="1.0" xmlns="http://www.w3.org/2000/svg"
 width="1024.000000pt" height="1024.000000pt" viewBox="0 0 1024.000000 1024.000000"
 preserveAspectRatio="xMidYMid meet">
<metadata>
Created by potrace 1.14, written by Peter Selinger 2001-2017
</metadata>
<g transform="translate(0.000000,1024.000000) scale(0.100000,-0.100000)"
fill="#000000" stroke="none">
<path d="M5069 9532 c-7 -2 -20 -11 -26 -20 -10 -13 -13 -893 -13 -4328 0
-3907 1 -4314 16 -4328 20 -20 28 -20 89 2 133 50 557 248 600 281 6 5 35 22
65 38 314 171 712 447 1080 748 240 196 247 204 426 430 298 378 464 659 537
910 17 58 21 103 22 270 4 335 -31 525 -153 830 -218 545 -567 1009 -1004
1336 -51 39 -95 75 -97 80 -2 6 60 74 137 152 78 78 175 183 217 232 295 346
481 710 540 1055 2 14 7 41 11 60 3 19 8 130 10 245 4 284 -21 407 -127 618
-125 249 -329 495 -539 650 -171 126 -488 337 -506 337 -2 0 -28 15 -57 34
-84 54 -347 183 -475 233 -236 92 -419 133 -608 137 -71 1 -137 0 -145 -2z
m687 -971 c485 -153 816 -397 962 -711 65 -140 90 -274 87 -463 -3 -154 -4
-161 -29 -255 -51 -193 -159 -383 -329 -580 -67 -78 -270 -271 -365 -347 -55
-44 -103 -89 -106 -100 -10 -36 -7 -645 4 -665 6 -11 61 -58 123 -104 185
-139 304 -242 458 -395 369 -370 556 -699 617 -1091 9 -62 8 -323 -2 -390 -20
-136 -108 -345 -209 -495 -112 -167 -322 -397 -497 -544 -41 -35 -87 -74 -101
-87 -90 -81 -648 -474 -673 -474 -3 0 -6 1512 -6 3360 0 1848 1 3360 3 3360 1
0 29 -9 63 -19z"/>
<path d="M2586 7818 c-14 -20 -16 -133 -16 -1020 l0 -998 -193 0 c-175 0 -196
-2 -210 -18 -15 -16 -17 -53 -17 -315 0 -294 0 -296 22 -311 18 -13 56 -16
210 -16 l188 0 0 -1050 c0 -1037 0 -1050 20 -1070 20 -20 33 -20 940 -20 907
0 920 0 940 20 19 19 20 33 20 314 0 293 0 295 -22 310 -20 14 -96 16 -630 16
l-608 0 0 740 0 740 519 0 520 0 15 22 c14 19 16 66 16 315 0 290 0 292 -22
307 -20 14 -87 16 -535 16 l-513 0 0 730 0 730 610 0 c597 0 610 0 630 20 19
19 20 33 20 270 0 237 -1 251 -20 270 -20 20 -33 20 -944 20 l-925 0 -15 -22z"/>
</g>
</svg>
